<svg xmlns="http://www.w3.org/2000/svg" width="871" height="778" fill="none" viewBox="0 0 871 778"><rect width="549.903" height="35.491" x=".957" y="5.045" stroke="#FFC131" stroke-width="10" rx="17.745" transform="matrix(-0.747316 0.664468 0.938743 0.344619 825.099 2.67094)"/><rect width="232.235" height="24.937" x=".957" y="5.045" stroke="#FFC131" stroke-width="10" rx="12.469" transform="matrix(-0.747316 0.664468 0.938743 0.344619 458.917 588.261)"/><rect width="113.875" height="17.84" x=".957" y="5.045" stroke="#FFC131" stroke-width="10" rx="8.92" transform="matrix(-0.747316 0.664468 0.938743 0.344619 464.509 103.671)"/><rect width="549.903" height="35.491" x=".957" y="5.045" stroke="#FFC131" stroke-width="10" rx="17.745" transform="matrix(-0.747316 0.664468 0.938743 0.344619 825.099 2.67094)"/><rect width="113.875" height="17.84" x=".957" y="5.045" stroke="#FFC131" stroke-width="10" rx="8.92" transform="matrix(-0.747316 0.664468 0.938743 0.344619 464.509 103.671)"/><rect width="220.186" height="66.195" x=".957" y="5.045" stroke="#FFC131" stroke-width="10" rx="33.097" transform="matrix(-0.747316 0.664468 0.938743 0.344619 168.959 600.671)"/></svg>